<svg width="41" height="41" viewBox="0 0 41 41" fill="none" xmlns="http://www.w3.org/2000/svg">
<g clip-path="url(#clip0_2312_465)">
<path d="M40.6562 20.5264C40.6562 9.48067 31.7019 0.526367 20.6562 0.526367C9.61055 0.526367 0.65625 9.48067 0.65625 20.5264C0.65625 31.5721 9.61055 40.5264 20.6562 40.5264C31.7019 40.5264 40.6562 31.5721 40.6562 20.5264Z" fill="white" fill-opacity="0.12"/>
<path d="M26.1558 10.5264H23.1558C21.8297 10.5264 20.558 11.0532 19.6203 11.9909C18.6826 12.9286 18.1558 14.2003 18.1558 15.5264V18.5264H15.1558V22.5264H18.1558V30.5264H22.1558V22.5264H25.1558L26.1558 18.5264H22.1558V15.5264C22.1558 15.2612 22.2612 15.0068 22.4487 14.8193C22.6363 14.6318 22.8906 14.5264 23.1558 14.5264H26.1558V10.5264Z" fill="white"/>
</g>
<defs>
<clipPath id="clip0_2312_465">
<rect width="40" height="40" fill="white" transform="translate(0.65625 0.526367)"/>
</clipPath>
</defs>
</svg>
