<svg width="41" height="41" viewBox="0 0 41 41" fill="none" xmlns="http://www.w3.org/2000/svg">
<g clip-path="url(#clip0_2312_468)">
<path d="M40.9844 20.5264C40.9844 9.48067 32.0301 0.526367 20.9844 0.526367C9.93868 0.526367 0.984375 9.48067 0.984375 20.5264C0.984375 31.5721 9.93868 40.5264 20.9844 40.5264C32.0301 40.5264 40.9844 31.5721 40.9844 20.5264Z" fill="white" fill-opacity="0.12"/>
<path d="M17.1527 20.5264C17.1527 18.4094 18.8684 16.6928 20.9854 16.6928C23.1024 16.6928 24.819 18.4094 24.819 20.5264C24.819 22.6434 23.1024 24.36 20.9854 24.36C18.8684 24.36 17.1527 22.6434 17.1527 20.5264ZM15.0802 20.5264C15.0802 23.7878 17.7239 26.4315 20.9854 26.4315C24.2468 26.4315 26.8905 23.7878 26.8905 20.5264C26.8905 17.265 24.2468 14.6213 20.9854 14.6213C17.7239 14.6213 15.0802 17.265 15.0802 20.5264ZM25.7442 14.3872C25.7442 15.1489 26.362 15.7676 27.1246 15.7676C27.8863 15.7676 28.505 15.1489 28.505 14.3872C28.505 13.6255 27.8872 13.0077 27.1246 13.0077C26.362 13.0077 25.7442 13.6255 25.7442 14.3872ZM16.3389 29.8871C15.2177 29.836 14.6084 29.6493 14.2033 29.4914C13.6664 29.2824 13.2837 29.0334 12.8806 28.6312C12.4783 28.229 12.2285 27.8463 12.0204 27.3094C11.8625 26.9044 11.6758 26.295 11.6247 25.1738C11.5689 23.9615 11.5578 23.5974 11.5578 20.5264C11.5578 17.4554 11.5699 17.0922 11.6247 15.879C11.6758 14.7578 11.8634 14.1494 12.0204 13.7434C12.2294 13.2065 12.4783 12.8238 12.8806 12.4207C13.2828 12.0184 13.6655 11.7686 14.2033 11.5605C14.6084 11.4026 15.2177 11.2159 16.3389 11.1648C17.5512 11.109 17.9153 11.0979 20.9854 11.0979C24.0564 11.0979 24.4196 11.11 25.6328 11.1648C26.754 11.2159 27.3624 11.4035 27.7683 11.5605C28.3052 11.7686 28.688 12.0184 29.0911 12.4207C29.4933 12.8229 29.7423 13.2065 29.9513 13.7434C30.1092 14.1485 30.2959 14.7578 30.347 15.879C30.4027 17.0922 30.4139 17.4554 30.4139 20.5264C30.4139 23.5965 30.4027 23.9606 30.347 25.1738C30.2959 26.295 30.1083 26.9044 29.9513 27.3094C29.7423 27.8463 29.4933 28.229 29.0911 28.6312C28.6889 29.0334 28.3052 29.2824 27.7683 29.4914C27.3633 29.6493 26.754 29.836 25.6328 29.8871C24.4205 29.9428 24.0564 29.954 20.9854 29.954C17.9153 29.954 17.5512 29.9428 16.3389 29.8871ZM16.2442 9.09604C15.0199 9.15177 14.1838 9.34592 13.4528 9.63017C12.6966 9.9237 12.0557 10.3176 11.4157 10.9567C10.7765 11.5958 10.3827 12.2367 10.0891 12.9938C9.80489 13.7249 9.61075 14.5609 9.55502 15.7852C9.49835 17.0114 9.48535 17.4034 9.48535 20.5264C9.48535 23.6494 9.49835 24.0414 9.55502 25.2676C9.61075 26.4919 9.80489 27.3279 10.0891 28.059C10.3827 28.8151 10.7756 29.457 11.4157 30.0961C12.0548 30.7352 12.6957 31.1281 13.4528 31.4226C14.1848 31.7069 15.0199 31.901 16.2442 31.9567C17.4713 32.0125 17.8624 32.0264 20.9854 32.0264C24.1093 32.0264 24.5004 32.0134 25.7266 31.9567C26.9509 31.901 27.7869 31.7069 28.518 31.4226C29.2741 31.1281 29.9151 30.7352 30.5551 30.0961C31.1942 29.457 31.5871 28.8151 31.8816 28.059C32.1658 27.3279 32.3609 26.4919 32.4157 25.2676C32.4714 24.0405 32.4844 23.6494 32.4844 20.5264C32.4844 17.4034 32.4714 17.0114 32.4157 15.7852C32.36 14.5609 32.1658 13.7249 31.8816 12.9938C31.5871 12.2377 31.1942 11.5967 30.5551 10.9567C29.916 10.3176 29.2741 9.9237 28.5189 9.63017C27.7869 9.34592 26.9509 9.15085 25.7275 9.09604C24.5013 9.0403 24.1093 9.02637 20.9863 9.02637C17.8624 9.02637 17.4713 9.03937 16.2442 9.09604Z" fill="white"/>
</g>
<defs>
<clipPath id="clip0_2312_468">
<rect width="40" height="40" fill="white" transform="translate(0.984375 0.526367)"/>
</clipPath>
</defs>
</svg>
