<svg width="41" height="41" viewBox="0 0 41 41" fill="none" xmlns="http://www.w3.org/2000/svg">
<g clip-path="url(#clip0_2312_460)">
<path d="M40.3281 20.5264C40.3281 9.48067 31.3738 0.526367 20.3281 0.526367C9.28243 0.526367 0.328125 9.48067 0.328125 20.5264C0.328125 31.5721 9.28243 40.5264 20.3281 40.5264C31.3738 40.5264 40.3281 31.5721 40.3281 20.5264Z" fill="white" fill-opacity="0.12"/>
<path d="M24.3286 17.0264C25.92 17.0264 27.4461 17.6585 28.5713 18.7838C29.6965 19.909 30.3287 21.4351 30.3287 23.0264V30.0265H26.3287V23.0264C26.3287 22.496 26.1179 21.9873 25.7429 21.6122C25.3678 21.2371 24.8591 21.0264 24.3286 21.0264C23.7982 21.0264 23.2895 21.2371 22.9144 21.6122C22.5393 21.9873 22.3286 22.496 22.3286 23.0264V30.0265H18.3286V23.0264C18.3286 21.4351 18.9607 19.909 20.086 18.7838C21.2112 17.6585 22.7373 17.0264 24.3286 17.0264Z" fill="white"/>
<path d="M14.3281 18.0264H10.3281V30.0265H14.3281V18.0264Z" fill="white"/>
<path d="M12.3281 15.0269C13.4327 15.0269 14.3281 14.1315 14.3281 13.0269C14.3281 11.9223 13.4327 11.0269 12.3281 11.0269C11.2235 11.0269 10.3281 11.9223 10.3281 13.0269C10.3281 14.1315 11.2235 15.0269 12.3281 15.0269Z" fill="white"/>
</g>
<defs>
<clipPath id="clip0_2312_460">
<rect width="40" height="40" fill="white" transform="translate(0.328125 0.526367)"/>
</clipPath>
</defs>
</svg>
