<svg width="28" height="55" viewBox="0 0 28 55" fill="none" xmlns="http://www.w3.org/2000/svg">
<path d="M9.38818 18.547C9.38818 8.85605 17.2442 1 26.9352 1V26.397H9.38818V18.547Z" fill="#37D15D" stroke="#37D15D" stroke-width="0.71951"/>
<rect x="9.38818" y="26.397" width="17.547" height="2.10844" fill="#37D15D" stroke="#37D15D" stroke-width="0.71951"/>
<path fill-rule="evenodd" clip-rule="evenodd" d="M9.70672 39.7006C9.49769 38.6177 9.38822 37.4993 9.38822 36.3553V28.5054H26.9352V53.9023C22.6861 53.9023 18.7897 52.392 15.7536 49.8789C12.7247 51.8967 7.86788 53.8148 2 52.7479C3.61617 52.0553 9.84997 47.8994 9.61909 39.5877C9.64711 39.6262 9.67633 39.6638 9.70672 39.7006Z" fill="#37D15D"/>
<path d="M9.70672 39.7006L9.42938 39.9298L10.06 39.6324L9.70672 39.7006ZM9.38822 28.5054V28.1456H9.02846V28.5054H9.38822ZM26.9352 28.5054H27.295V28.1456H26.9352V28.5054ZM26.9352 53.9023V54.2621H27.295V53.9023H26.9352ZM15.7536 49.8789L15.983 49.6017L15.7769 49.4311L15.5542 49.5795L15.7536 49.8789ZM2 52.7479L1.85829 52.4172L0.759717 52.8881L1.93565 53.1019L2 52.7479ZM9.61909 39.5877L9.91004 39.3761L9.22724 38.4372L9.25947 39.5977L9.61909 39.5877ZM9.02846 36.3553C9.02846 37.5223 9.14014 38.6635 9.35349 39.7688L10.06 39.6324C9.85523 38.5719 9.74797 37.4763 9.74797 36.3553H9.02846ZM9.02846 28.5054V36.3553H9.74797V28.5054H9.02846ZM26.9352 28.1456H9.38822V28.8651H26.9352V28.1456ZM27.295 53.9023V28.5054H26.5755V53.9023H27.295ZM15.5242 50.156C18.6224 52.7205 22.5993 54.2621 26.9352 54.2621V53.5426C22.7729 53.5426 18.957 52.0634 15.983 49.6017L15.5242 50.156ZM1.93565 53.1019C7.91811 54.1896 12.8684 52.2332 15.9531 50.1783L15.5542 49.5795C12.581 51.5602 7.81764 53.44 2.06435 52.394L1.93565 53.1019ZM9.25947 39.5977C9.37215 43.6542 7.90931 46.6902 6.22127 48.8002C4.52616 50.9191 2.61126 52.0945 1.85829 52.4172L2.14171 53.0786C3.00491 52.7086 5.015 51.4598 6.78311 49.2497C8.55829 47.0307 10.0969 43.8328 9.9787 39.5777L9.25947 39.5977ZM9.98406 39.4715C9.9583 39.4403 9.93362 39.4085 9.91004 39.3761L9.32814 39.7993C9.36059 39.8439 9.39436 39.8874 9.42938 39.9298L9.98406 39.4715Z" fill="#37D15D"/>
</svg>
