<svg width="28" height="55" viewBox="0 0 28 55" fill="none" xmlns="http://www.w3.org/2000/svg">
<path d="M18.6118 18.547C18.6118 8.85605 10.7558 1 1.06483 1V26.397H18.6118V18.547Z" fill="#9149ED" stroke="#9149ED" stroke-width="0.71951"/>
<rect width="17.547" height="2.10844" transform="matrix(-1 0 0 1 18.6118 26.397)" fill="#9149ED" stroke="#9149ED" stroke-width="0.71951"/>
<path fill-rule="evenodd" clip-rule="evenodd" d="M18.2932 39.7007C18.5023 38.6177 18.6117 37.4993 18.6117 36.3553V28.5054H1.06475V53.9023C5.3139 53.9023 9.21029 52.392 12.2464 49.8789C15.2753 51.8967 20.1321 53.8148 26 52.7479C24.3838 52.0553 18.15 47.8994 18.3809 39.5877C18.3529 39.6262 18.3236 39.6639 18.2932 39.7007Z" fill="#9149ED"/>
<path d="M18.2932 39.7007L18.5705 39.9298L17.94 39.6325L18.2932 39.7007ZM18.6117 28.5054V28.1456H18.9715V28.5054H18.6117ZM1.06475 28.5054H0.704996V28.1456H1.06475V28.5054ZM1.06475 53.9023V54.2621H0.704996V53.9023H1.06475ZM12.2464 49.8789L12.017 49.6017L12.2231 49.4311L12.4458 49.5795L12.2464 49.8789ZM26 52.7479L26.1417 52.4172L27.2403 52.8881L26.0644 53.1019L26 52.7479ZM18.3809 39.5877L18.09 39.3761L18.7728 38.4372L18.7405 39.5977L18.3809 39.5877ZM18.9715 36.3553C18.9715 37.5223 18.8598 38.6636 18.6465 39.7689L17.94 39.6325C18.1447 38.5719 18.252 37.4763 18.252 36.3553H18.9715ZM18.9715 28.5054V36.3553H18.252V28.5054H18.9715ZM1.06475 28.1456H18.6117V28.8651H1.06475V28.1456ZM0.704996 53.9023V28.5054H1.42451V53.9023H0.704996ZM12.4757 50.156C9.37756 52.7205 5.4007 54.2621 1.06475 54.2621V53.5426C5.2271 53.5426 9.04302 52.0634 12.017 49.6017L12.4757 50.156ZM26.0644 53.1019C20.0819 54.1896 15.1315 52.2332 12.0469 50.1783L12.4458 49.5795C15.419 51.5602 20.1823 53.44 25.9356 52.394L26.0644 53.1019ZM18.7405 39.5977C18.6278 43.6542 20.0907 46.6902 21.7787 48.8002C23.4738 50.9191 25.3887 52.0945 26.1417 52.4172L25.8583 53.0786C24.9951 52.7086 22.985 51.4598 21.2169 49.2497C19.4417 47.0307 17.9031 43.8328 18.0213 39.5777L18.7405 39.5977ZM18.0159 39.4715C18.0417 39.4403 18.0664 39.4085 18.09 39.3761L18.6719 39.7993C18.6394 39.8439 18.6056 39.8874 18.5705 39.9298L18.0159 39.4715Z" fill="#9149ED"/>
</svg>
