<svg width="26" height="50" viewBox="0 0 26 50" fill="none" xmlns="http://www.w3.org/2000/svg">
<path d="M8.84558 16.7671C8.84558 7.78803 16.1246 0.509033 25.1037 0.509033V24.0405H8.84558V16.7671Z" fill="#2E9DFB" stroke="#2E9DFB" stroke-width="0.666659"/>
<rect x="8.84558" y="24.0403" width="16.2581" height="1.93684" fill="#2E9DFB" stroke="#2E9DFB" stroke-width="0.666659"/>
<path fill-rule="evenodd" clip-rule="evenodd" d="M9.14063 36.3502C8.94694 35.3468 8.84552 34.3106 8.84552 33.2506V25.9773H25.1036V49.5087C21.1666 49.5087 17.5564 48.1093 14.7434 45.7808C11.9369 47.6504 7.43685 49.4276 2 48.4391C3.49745 47.7973 9.27335 43.9467 9.05943 36.2455C9.08539 36.2812 9.11247 36.3161 9.14063 36.3502Z" fill="#2E9DFB"/>
<path d="M9.14063 36.3502L8.88366 36.5625L9.46791 36.287L9.14063 36.3502ZM8.84552 25.9773V25.644H8.51219V25.9773H8.84552ZM25.1036 25.9773H25.4369V25.644H25.1036V25.9773ZM25.1036 49.5087V49.8421H25.4369V49.5087H25.1036ZM14.7434 45.7808L14.9559 45.524L14.7649 45.3659L14.5586 45.5034L14.7434 45.7808ZM2 48.4391L1.8687 48.1327L0.850823 48.569L1.94037 48.7671L2 48.4391ZM9.05943 36.2455L9.32901 36.0495L8.69636 35.1796L8.72623 36.2548L9.05943 36.2455ZM8.51219 33.2506C8.51219 34.3319 8.61566 35.3893 8.81334 36.4134L9.46791 36.287C9.27823 35.3044 9.17884 34.2893 9.17884 33.2506H8.51219ZM8.51219 25.9773V33.2506H9.17884V25.9773H8.51219ZM25.1036 25.644H8.84552V26.3106H25.1036V25.644ZM25.4369 49.5087V25.9773H24.7703V49.5087H25.4369ZM14.5308 46.0376C17.4014 48.4138 21.0862 49.8421 25.1036 49.8421V49.1754C21.247 49.1754 17.7114 47.8049 14.9559 45.524L14.5308 46.0376ZM1.94037 48.7671C7.4834 49.7749 12.0701 47.9623 14.9282 46.0582L14.5586 45.5034C11.8038 47.3386 7.39031 49.0804 2.05963 48.1112L1.94037 48.7671ZM8.72623 36.2548C8.83064 40.0134 7.47525 42.8263 5.9112 44.7814C4.3406 46.7446 2.56636 47.8337 1.8687 48.1327L2.1313 48.7455C2.93109 48.4027 4.79353 47.2456 6.43177 45.1978C8.07655 43.1419 9.50215 40.1789 9.39263 36.2363L8.72623 36.2548ZM9.39759 36.1379C9.37372 36.109 9.35086 36.0795 9.32901 36.0495L8.78986 36.4416C8.81992 36.4829 8.85121 36.5232 8.88366 36.5625L9.39759 36.1379Z" fill="#2E9DFB"/>
</svg>
