<svg width="27" height="53" viewBox="0 0 27 53" fill="none" xmlns="http://www.w3.org/2000/svg">
<path d="M17.9049 18.256C17.9049 8.72576 10.1792 1 0.648939 1V25.9757H17.9049V18.256Z" fill="#FFD955" stroke="#FFD955" stroke-width="0.707577"/>
<rect width="17.256" height="1.52127" transform="matrix(-1 0 0 1 17.9049 25.9756)" fill="#FFD955" stroke="#FFD955" stroke-width="0.707577"/>
<path fill-rule="evenodd" clip-rule="evenodd" d="M17.5917 38.5067C17.7973 37.4417 17.9049 36.3419 17.9049 35.2168V27.4971H0.648964V52.4728C4.82764 52.4728 8.6594 50.9875 11.6451 48.5161C14.6238 50.5005 19.4001 52.3867 25.1707 51.3375C23.5813 50.6564 17.4509 46.5694 17.6779 38.3956C17.6504 38.4335 17.6216 38.4705 17.5917 38.5067Z" fill="#FFD955"/>
<path d="M17.5917 38.5067L17.8644 38.7321L17.2443 38.4397L17.5917 38.5067ZM17.9049 27.4971V27.1433H18.2587V27.4971H17.9049ZM0.648964 27.4971H0.295176V27.1433H0.648964V27.4971ZM0.648964 52.4728V52.8266H0.295176V52.4728H0.648964ZM11.6451 48.5161L11.4195 48.2435L11.6222 48.0757L11.8413 48.2216L11.6451 48.5161ZM25.1707 51.3375L25.31 51.0124L26.3904 51.4754L25.2339 51.6856L25.1707 51.3375ZM17.6779 38.3956L17.3918 38.1875L18.0633 37.2642L18.0316 38.4054L17.6779 38.3956ZM18.2587 35.2168C18.2587 36.3645 18.1489 37.4868 17.9391 38.5738L17.2443 38.4397C17.4457 37.3967 17.5511 36.3192 17.5511 35.2168H18.2587ZM18.2587 27.4971V35.2168H17.5511V27.4971H18.2587ZM0.648964 27.1433H17.9049V27.8509H0.648964V27.1433ZM0.295176 52.4728V27.4971H1.00275V52.4728H0.295176ZM11.8707 48.7886C8.8239 51.3106 4.913 52.8266 0.648964 52.8266V52.119C4.74228 52.119 8.49491 50.6644 11.4195 48.2435L11.8707 48.7886ZM25.2339 51.6856C19.3507 52.7553 14.4825 50.8314 11.449 48.8105L11.8413 48.2216C14.7651 50.1695 19.4495 52.0182 25.1074 50.9895L25.2339 51.6856ZM18.0316 38.4054C17.9208 42.3947 19.3593 45.3803 21.0194 47.4553C22.6864 49.5391 24.5695 50.695 25.31 51.0124L25.0313 51.6627C24.1824 51.2989 22.2057 50.0708 20.4669 47.8973C18.7211 45.7152 17.208 42.5703 17.3243 38.3857L18.0316 38.4054ZM17.319 38.2814C17.3443 38.2507 17.3686 38.2194 17.3918 38.1875L17.9641 38.6037C17.9321 38.6476 17.8989 38.6904 17.8644 38.7321L17.319 38.2814Z" fill="#FFD955"/>
</svg>
