<svg width="40" height="41" viewBox="0 0 40 41" fill="none" xmlns="http://www.w3.org/2000/svg">
<g clip-path="url(#clip0_2312_453)">
<path d="M40 20.5264C40 9.48067 31.0457 0.526367 20 0.526367C8.9543 0.526367 0 9.48067 0 20.5264C0 31.5721 8.9543 40.5264 20 40.5264C31.0457 40.5264 40 31.5721 40 20.5264Z" fill="white" fill-opacity="0.12"/>
<mask id="mask0_2312_453" style="mask-type:luminance" maskUnits="userSpaceOnUse" x="11" y="11" width="18" height="19">
<path d="M28.75 11.7764H11.25V29.2764H28.75V11.7764Z" fill="white"/>
</mask>
<g mask="url(#mask0_2312_453)">
<path d="M21.6649 19.1827L28.1796 11.7764H26.6359L20.9791 18.2071L16.461 11.7764H11.25L18.0822 21.5008L11.25 29.2674H12.7939L18.7676 22.4763L23.539 29.2674H28.75L21.6649 19.1827ZM19.5503 21.5865L18.8581 20.6182L13.3502 12.913H15.7215L20.1664 19.1313L20.8587 20.0997L26.6366 28.1825H24.2653L19.5503 21.5865Z" fill="white"/>
</g>
</g>
<defs>
<clipPath id="clip0_2312_453">
<rect width="40" height="40" fill="white" transform="translate(0 0.526367)"/>
</clipPath>
</defs>
</svg>
